<svg width="128" height="128" viewBox="0 0 128 128" fill="none" xmlns="http://www.w3.org/2000/svg">
<path fill-rule="evenodd" clip-rule="evenodd" d="M86.1422 47.2334C86.1331 47.0919 86.1185 46.9434 86.0994 46.7863C85.9588 45.63 85.2856 44.6156 84.3912 43.8601C80.2361 40.3501 77.7828 38.0464 78.7154 33.9699H80.222C81.1842 33.9699 82.1637 33.8689 83.0171 33.4288C86.7248 31.518 88.5536 26.4828 90.5495 11.8647L92.1425 12.9925L93.0528 6L96.4665 11.4135C97.5134 17.442 98.1843 20.5189 99.425 25.8496C104.544 40.6309 107.783 49.5099 113.945 62.6053C114.721 64.2555 115.83 67.352 114.025 67.0177C113.875 66.9902 113.712 66.9496 113.535 66.9023C110.738 65.9206 108.696 64.518 106.84 63.2436C105.724 62.4767 104.675 61.7562 103.57 61.2014C102.715 60.7723 101.78 61.1359 101.551 62.058C100.632 65.7501 99.8702 74.9779 101.246 80.4361C101.539 81.6018 101.821 82.5794 102.091 83.5159C102.436 84.7105 102.761 85.8383 103.066 87.203C104.176 92.1654 100.735 93.0677 98.9148 92.1654C97.5134 91.4707 96.6354 90.7096 95.3832 89.6242C95.0086 89.2994 94.6008 88.9457 94.1357 88.5564C94.8512 101.762 92.0133 110.416 83.7221 122.165C80.4263 119.28 78.9903 116.64 76.6672 111.338C75.5557 109.05 74.6964 108.447 72.5708 109.083C70.6482 109.807 69.4809 111.346 68.3141 112.885C66.949 114.686 65.5846 116.485 63.0123 116.977C60.0001 117.554 57.2726 115.376 55.8347 112.69L53.7528 108.801C52.8054 107.031 50.9231 105.876 48.982 106.435C42.2883 108.363 32.9904 115.627 27.0545 126C25.8178 100.394 45.8631 85.8916 62.9179 73.5523C73.1302 66.1638 82.2702 59.5511 85.1272 51.7944L85.1613 51.7024C85.6925 50.2604 86.2446 48.7625 86.1422 47.2334ZM36.5283 108.632C44.4138 95.0842 55.5375 85.0141 66.7827 77.5976C73.2326 73.3435 79.7846 68.9937 84.4026 62.8281C87.2632 59.008 89.4644 55.2113 91.8863 50.2015C92.4598 49.0161 92.843 47.7408 92.9149 46.4283C93.0679 43.6387 92.6427 41.8105 90.9195 39.3835C92.528 38.7973 93.2768 38.2018 94.1056 36.2256C95.5371 36.4648 96.198 36.4216 96.3814 35.0977V28.1053C98.9535 39.0347 102.627 47.2657 106.408 55.7368C106.792 56.598 107.177 57.4615 107.563 58.3308L104.125 55.8266C102.988 54.9988 101.433 54.7146 100.309 55.5605C98.7168 56.76 98.0582 58.5266 97.5193 61.7143C96.3814 71.6391 96.3814 77.7293 99.1123 86.3008C99.1123 86.3008 93.1953 79.7594 90.2368 79.3083C87.2783 78.8571 86.368 80.2105 87.2783 83.1429C87.2783 83.1429 88.9965 86.2687 89.3265 89.4586C90.2368 98.2556 88.1886 103.669 83.8646 114.045C82.7007 108.718 80.6448 105.591 78.8183 103.747C77.6226 102.539 75.8834 102.006 74.2016 102.296C70.3631 102.957 67.9089 105.242 64.5205 109.534C63.8131 110.137 62.9518 109.985 62.4723 108.632C62.3542 108.298 62.2401 107.975 62.1294 107.661C60.9208 104.236 60.1137 101.949 58.8961 100.355C57.5503 98.5935 55.1845 97.9254 52.9832 98.2741C47.7308 99.106 41.1627 103.303 36.5283 108.632Z" fill="url(#paint0_linear)"/>
<defs>
<linearGradient id="paint0_linear" x1="118.487" y1="11.188" x2="23.7171" y2="131.332" gradientUnits="userSpaceOnUse">
<stop offset="0.128302" stop-color="#0331A1" stop-opacity="0.78"/>
<stop offset="0.875" stop-color="#C901A1"/>
</linearGradient>
</defs>
</svg>
